<?xml version="1.0" standalone="no"?>
<!DOCTYPE svg PUBLIC "-//W3C//DTD SVG 20010904//EN"
 "http://www.w3.org/TR/2001/REC-SVG-20010904/DTD/svg10.dtd">
<svg version="1.0" xmlns="http://www.w3.org/2000/svg"
 width="600.000000pt" height="595.000000pt" viewBox="0 0 600.000000 595.000000"
 preserveAspectRatio="xMidYMid meet">

<g transform="translate(0.000000,595.000000) scale(0.100000,-0.100000)"
fill="#000000" stroke="none">
<path d="M2250 5679 c-291 -268 -591 -436 -865 -484 -74 -13 -105 -13 -196 -3
-277 31 -550 -60 -750 -249 -130 -124 -239 -276 -239 -334 0 -43 40 -83 83
-83 43 0 61 14 105 84 166 262 404 410 666 413 50 1 134 -2 186 -7 75 -7 114
-5 184 8 308 59 649 247 923 509 86 83 104 118 82 159 -18 34 -40 47 -79 47
-29 0 -47 -10 -100 -60z"/>
<path d="M3599 5727 c-26 -20 -41 -57 -34 -87 8 -35 131 -155 263 -258 243
-187 502 -311 748 -358 70 -13 109 -15 184 -8 52 5 136 8 186 7 262 -3 500
-151 666 -413 44 -70 62 -84 105 -84 42 0 83 40 83 80 0 59 -114 219 -241 339
-199 187 -472 278 -748 247 -91 -10 -122 -10 -196 3 -272 48 -555 204 -851
472 -68 61 -87 73 -115 73 -19 0 -41 -6 -50 -13z"/>
<path d="M1973 4336 c-136 -33 -245 -122 -310 -252 -38 -77 -38 -79 -38 -199
0 -120 0 -122 37 -196 60 -121 153 -203 276 -243 l52 -18 0 -1579 c0 -1685 -2
-1625 45 -1643 38 -14 82 -6 106 20 l24 26 3 1588 2 1589 38 12 c107 34 218
120 269 207 83 141 83 333 0 474 -37 64 -128 145 -199 178 -105 49 -203 60
-305 36z m232 -191 c213 -104 215 -408 4 -514 -68 -34 -148 -41 -219 -20 -59
18 -130 78 -164 139 -27 49 -31 64 -31 135 0 70 4 87 30 134 33 60 93 114 151
136 54 20 177 15 229 -10z"/>
<path d="M3831 4339 c-113 -22 -251 -119 -308 -217 -63 -107 -80 -255 -44
-371 26 -83 60 -137 123 -198 55 -51 120 -89 190 -112 l38 -12 2 -1589 3
-1588 24 -26 c24 -26 68 -34 106 -20 47 18 45 -42 45 1643 l0 1579 53 18 c122
40 215 122 275 243 37 74 37 76 37 196 0 120 0 122 -38 199 -96 194 -298 296
-506 255z m189 -184 c61 -22 121 -74 155 -136 26 -47 30 -64 30 -134 0 -71 -4
-86 -31 -135 -36 -64 -107 -123 -170 -140 -57 -16 -159 -9 -209 15 -84 41
-148 131 -161 228 -17 124 69 261 191 305 45 16 147 14 195 -3z"/>
<path d="M2943 4156 l-28 -24 -3 -526 -3 -525 -62 -44 c-99 -70 -184 -116
-297 -162 -124 -50 -149 -74 -134 -132 7 -28 17 -42 42 -55 31 -15 39 -15 85
-1 81 23 290 127 377 187 l80 55 78 -53 c136 -94 358 -196 426 -196 44 0 75
27 82 71 9 52 -22 80 -136 124 -104 41 -200 93 -297 162 l-62 44 -3 525 -3
526 -28 24 c-16 13 -41 24 -57 24 -16 0 -41 -11 -57 -24z"/>
<path d="M938 3700 c-23 -17 -26 -29 -32 -117 -27 -387 -230 -746 -580 -1024
-55 -45 -107 -88 -113 -97 -22 -28 -15 -71 16 -103 47 -46 75 -40 178 40 282
219 487 487 587 771 15 41 29 82 32 90 8 20 16 -1 70 -194 83 -293 144 -603
181 -916 14 -122 17 -283 20 -1024 l4 -878 24 -24 c33 -33 87 -33 120 1 l25
24 0 838 c0 657 -3 874 -15 1006 -38 430 -126 852 -267 1272 -60 178 -118 318
-140 338 -27 23 -79 22 -110 -3z"/>
<path d="M4952 3703 c-22 -20 -80 -160 -140 -338 -141 -420 -229 -842 -267
-1272 -12 -132 -15 -349 -15 -1006 l0 -838 25 -24 c33 -34 87 -34 120 -1 l24
24 4 878 c3 741 6 902 20 1024 38 323 103 649 189 945 27 93 51 171 53 174 3
2 7 -2 9 -10 3 -8 17 -48 32 -89 100 -284 305 -552 587 -771 103 -80 131 -86
178 -40 31 32 38 75 17 103 -7 9 -58 52 -114 96 -350 280 -553 638 -580 1025
-6 88 -9 100 -32 117 -31 25 -83 26 -110 3z"/>
<path d="M2877 960 c-14 -11 -28 -33 -32 -49 -7 -33 15 -85 40 -95 21 -8 209
-8 230 0 25 10 47 62 40 95 -12 54 -46 69 -155 69 -82 0 -101 -3 -123 -20z"/>
</g>
</svg>
