<?xml version="1.0" standalone="no"?>
<!DOCTYPE svg PUBLIC "-//W3C//DTD SVG 20010904//EN"
 "http://www.w3.org/TR/2001/REC-SVG-20010904/DTD/svg10.dtd">
<svg version="1.0" xmlns="http://www.w3.org/2000/svg"
 width="551.000000pt" height="600.000000pt" viewBox="0 0 551.000000 600.000000"
 preserveAspectRatio="xMidYMid meet">

<g transform="translate(0.000000,600.000000) scale(0.100000,-0.100000)"
fill="#000000" stroke="none">
<path d="M1997 5785 c-168 -32 -323 -113 -450 -234 -87 -83 -135 -148 -191
-258 -138 -276 -114 -625 62 -891 19 -29 33 -54 31 -56 -2 -2 -47 -15 -100
-30 -229 -62 -431 -175 -528 -297 -19 -23 -162 -271 -317 -550 -238 -430 -283
-518 -294 -572 -14 -77 -3 -153 34 -224 14 -26 124 -185 245 -353 202 -281
218 -306 204 -322 -9 -10 -59 -39 -112 -64 -171 -84 -300 -240 -346 -419 -31
-121 -16 -184 61 -255 37 -34 50 -40 88 -40 51 0 85 23 131 90 37 54 87 81
215 120 58 17 167 52 243 77 134 44 139 45 201 34 72 -13 157 -1 218 30 20 10
42 19 47 19 30 0 625 -476 639 -510 5 -12 -117 -30 -205 -30 -181 0 -369 51
-589 161 -183 91 -260 112 -334 90 -57 -17 -84 -48 -116 -139 -89 -252 -159
-393 -260 -528 -68 -90 -184 -200 -274 -260 -75 -50 -90 -76 -74 -123 12 -33
53 -56 86 -48 78 20 285 202 394 346 77 103 194 332 249 489 38 111 39 112 70
112 19 0 94 -31 191 -79 177 -88 215 -102 359 -136 217 -52 344 -55 535 -13
52 11 100 21 107 22 6 0 105 -91 220 -204 249 -245 267 -256 523 -319 396 -97
894 -167 1430 -201 287 -18 844 -25 878 -11 37 16 57 57 43 92 -20 54 -14 53
-440 61 -748 12 -1378 84 -1909 218 -186 47 -198 55 -452 306 -258 254 -328
319 -532 489 -109 92 -389 309 -426 331 -2 1 7 34 19 74 27 90 23 174 -13 251
-14 30 -82 134 -152 231 -70 97 -125 182 -121 188 9 15 81 50 104 50 28 0 86
-72 171 -211 60 -100 97 -147 190 -242 192 -198 275 -251 535 -341 273 -94
259 -87 266 -138 18 -120 110 -235 224 -277 109 -42 281 -14 346 55 12 13 28
24 35 24 6 0 44 -30 84 -67 l72 -66 651 37 652 38 98 39 c173 69 334 162 426
244 34 31 41 44 41 75 0 30 -6 43 -26 59 -38 30 -66 26 -116 -16 -107 -90
-325 -207 -444 -237 -39 -10 -254 -26 -640 -47 l-581 -33 -61 53 -61 53 282
391 c154 216 302 423 328 460 59 85 85 172 76 257 -4 33 -52 219 -108 413 -55
194 -134 478 -175 632 -90 338 -115 395 -213 488 -108 101 -265 167 -473 197
-49 7 -88 14 -88 16 0 1 20 35 45 75 272 441 112 1028 -345 1263 -130 68 -241
97 -385 102 -80 2 -146 -1 -198 -11z m403 -180 c98 -34 235 -120 298 -189 69
-74 136 -187 167 -277 37 -109 46 -294 21 -404 -27 -115 -97 -244 -183 -335
-158 -169 -360 -251 -583 -237 -505 31 -835 551 -646 1017 68 167 217 321 384
398 111 51 175 62 322 59 117 -3 146 -7 220 -32z m-771 -1425 c106 -83 283
-151 439 -169 212 -23 452 40 624 166 l47 34 103 -11 c314 -34 490 -117 567
-269 11 -21 41 -116 66 -212 60 -225 182 -663 251 -902 54 -188 64 -259 44
-312 -12 -31 -679 -965 -724 -1013 -83 -90 -198 -93 -282 -8 -50 49 -69 105
-60 169 6 39 50 106 307 463 167 233 299 426 299 438 0 45 -217 826 -235 846
-19 21 -64 26 -95 10 -46 -25 -43 -44 65 -450 l103 -384 -265 -369 c-146 -203
-274 -385 -285 -404 -14 -23 -26 -33 -37 -29 -95 30 -386 138 -421 155 -150
77 -348 276 -459 460 -124 207 -212 282 -313 268 -23 -3 -75 -22 -115 -43 -71
-36 -74 -37 -88 -18 -157 220 -163 229 -151 244 51 71 251 320 256 320 8 0 20
-127 20 -210 0 -67 18 -97 66 -106 24 -5 37 0 60 19 29 25 29 26 26 129 -5
181 -34 348 -71 398 -19 26 -48 35 -86 26 -14 -4 -100 -104 -239 -280 -184
-234 -216 -280 -216 -308 0 -28 48 -101 291 -438 160 -223 295 -415 300 -428
12 -32 11 -115 -2 -149 -25 -66 -110 -123 -184 -123 -48 0 -112 28 -141 61
-19 21 -604 834 -694 964 -31 45 -35 57 -35 115 l0 65 254 460 c140 253 274
490 298 527 89 137 276 240 548 303 55 13 106 24 114 24 7 1 30 -12 50 -29z
m-750 -2403 c39 -54 71 -102 71 -107 0 -5 -60 -28 -132 -50 -73 -23 -162 -50
-198 -61 -87 -27 -146 -62 -199 -118 l-44 -46 5 52 c12 132 128 279 278 351
47 23 96 50 110 62 14 11 28 19 32 17 3 -1 38 -46 77 -100z"/>
<path d="M4531 4592 c-75 -37 -99 -125 -53 -189 69 -97 232 -48 232 69 0 55
-30 105 -75 124 -45 18 -63 18 -104 -4z"/>
<path d="M4501 3885 c-91 -77 -42 -225 75 -225 83 0 134 47 134 125 0 78 -51
125 -134 125 -33 0 -52 -6 -75 -25z"/>
<path d="M4519 3206 c-85 -48 -85 -166 0 -223 84 -56 191 8 191 115 0 34 -6
49 -33 78 -28 31 -41 37 -83 40 -31 3 -58 -1 -75 -10z"/>
<path d="M1044 350 c-28 -11 -54 -48 -54 -78 0 -12 11 -34 25 -47 l24 -25 610
0 c345 0 620 4 634 9 13 5 30 24 37 42 12 27 11 36 -1 58 -29 51 -21 51 -659
50 -327 0 -605 -4 -616 -9z"/>
</g>
</svg>
