<?xml version="1.0" standalone="no"?>
<!DOCTYPE svg PUBLIC "-//W3C//DTD SVG 20010904//EN"
 "http://www.w3.org/TR/2001/REC-SVG-20010904/DTD/svg10.dtd">
<svg version="1.0" xmlns="http://www.w3.org/2000/svg"
 width="578.000000pt" height="600.000000pt" viewBox="0 0 578.000000 600.000000"
 preserveAspectRatio="xMidYMid meet">

<g transform="translate(0.000000,600.000000) scale(0.100000,-0.100000)"
fill="#000000" stroke="none">
<path d="M2500 5789 c-263 -44 -498 -224 -615 -470 -56 -120 -77 -215 -78
-354 0 -133 16 -215 62 -326 l28 -68 -60 -26 c-272 -118 -619 -385 -860 -664
-306 -352 -439 -625 -441 -901 -1 -250 73 -380 453 -798 l76 -84 2 -106 c2
-182 50 -344 144 -488 28 -42 49 -78 47 -79 -2 -2 -59 -33 -128 -70 -283 -153
-410 -230 -525 -319 -87 -69 -195 -179 -242 -247 -94 -137 -153 -322 -153
-480 0 -61 3 -70 26 -88 34 -27 67 -27 97 2 21 19 26 36 35 127 21 199 80 320
226 466 124 123 295 234 677 437 l106 57 39 -31 c101 -80 254 -149 389 -174
108 -21 294 -16 395 10 107 27 275 115 363 190 l79 67 96 -36 c175 -64 242
-67 340 -17 66 35 107 91 299 421 253 432 241 406 204 451 l-19 24 -353 5
-352 5 -23 67 c-31 93 -86 194 -145 268 -28 34 -49 63 -47 65 6 6 1296 85
1380 85 66 0 80 -4 128 -33 40 -23 64 -47 88 -87 31 -52 33 -60 30 -130 l-4
-75 -336 -655 c-185 -360 -378 -738 -430 -840 -53 -104 -111 -233 -131 -295
-41 -122 -73 -291 -63 -330 15 -60 80 -84 126 -47 17 14 24 34 31 98 10 92 47
226 88 323 33 76 808 1591 821 1605 5 5 28 -8 55 -32 64 -56 137 -82 230 -82
109 0 175 27 251 104 108 108 129 215 85 431 -132 643 -366 1119 -731 1485
-218 219 -459 375 -750 485 -41 16 -77 30 -78 31 -2 1 7 42 19 91 29 114 32
283 5 393 -24 97 -93 244 -149 318 -191 247 -502 371 -807 321z m350 -177
c198 -65 373 -239 436 -437 32 -97 42 -233 25 -330 -62 -353 -407 -607 -757
-557 -167 25 -295 92 -413 218 -350 375 -163 992 338 1119 84 21 287 14 371
-13z m617 -1126 c613 -234 1060 -757 1286 -1506 40 -133 83 -318 99 -430 14
-94 3 -142 -45 -197 -79 -89 -205 -96 -290 -15 -43 41 -55 71 -82 205 -103
507 -251 823 -463 989 -122 96 -304 178 -392 178 -135 0 -253 -101 -311 -266
-47 -136 -68 -350 -51 -524 5 -52 8 -96 8 -97 -1 -1 -175 -13 -386 -26 l-385
-24 -90 44 c-138 66 -225 86 -385 86 -190 1 -328 -37 -486 -133 l-69 -42 -22
29 c-52 64 -67 185 -33 275 18 48 161 251 254 359 53 62 48 126 -12 147 -46
16 -75 -5 -171 -125 -199 -248 -244 -339 -244 -488 0 -98 20 -167 75 -256 15
-25 28 -49 28 -52 0 -3 -23 -37 -52 -74 -28 -37 -71 -110 -96 -161 -37 -79
-46 -91 -59 -81 -26 22 -197 221 -258 299 -102 133 -145 244 -145 375 1 191
86 391 271 638 253 337 563 600 912 774 l108 54 88 -84 c98 -93 208 -157 341
-199 65 -20 95 -23 230 -23 135 0 165 3 230 23 185 58 352 176 451 320 17 23
36 42 44 42 7 0 53 -15 102 -34z m253 -979 c167 -83 267 -182 359 -357 42 -81
121 -283 121 -310 0 -5 -15 -3 -34 5 -61 26 -136 27 -460 6 -176 -11 -322 -19
-324 -16 -3 2 -7 78 -10 167 -7 257 29 417 114 505 43 45 43 45 101 41 40 -3
81 -16 133 -41z m-1515 -791 c119 -40 208 -97 306 -196 71 -71 94 -103 133
-181 65 -133 81 -199 80 -344 0 -128 -15 -201 -59 -301 -132 -298 -458 -486
-775 -445 -261 33 -477 186 -591 416 -50 102 -69 176 -76 295 -19 313 174 617
468 736 106 43 172 54 309 50 103 -3 139 -8 205 -30z m1164 -678 c-44 -83
-313 -535 -327 -551 -24 -27 -66 -47 -100 -47 -24 0 -119 28 -183 55 -15 5
-11 18 27 95 60 119 94 255 94 376 l0 94 250 0 251 0 -12 -22z"/>
<path d="M5399 1915 c-77 -42 -86 -149 -17 -213 98 -90 256 37 195 158 -30 59
-119 87 -178 55z"/>
<path d="M5045 1069 c-73 -21 -115 -112 -81 -176 26 -51 62 -73 118 -73 43 0
55 5 83 33 60 60 59 134 -1 186 -19 17 -41 31 -49 31 -7 0 -19 2 -27 4 -7 2
-27 0 -43 -5z"/>
<path d="M4315 550 c-55 -22 -90 -95 -74 -153 39 -143 249 -115 249 33 0 92
-92 155 -175 120z"/>
</g>
</svg>
